<svg width="115" height="24" viewBox="0 0 115 24" fill="none" xmlns="http://www.w3.org/2000/svg">
<rect x="9.1875" y="2.8125" width="2.625" height="8.6625" fill="#3C3C3C"/>
<rect x="1.78722" y="16.0263" width="8.1375" height="2.625" transform="rotate(-30.7211 1.78722 16.0263)" fill="#3C3C3C"/>
<rect x="12.4213" y="11.7375" width="8.1375" height="2.625" transform="rotate(31.7771 12.4213 11.7375)" fill="#3C3C3C"/>
<circle cx="10.5" cy="12.525" r="2.3625" fill="#3C3C3C"/>
<circle cx="10.5" cy="12" r="8" stroke="#3C3C3C" stroke-width="5"/>
<path d="M32.42 19.2C31.3267 19.2 30.32 19.0267 29.4 18.68C28.4933 18.32 27.7 17.82 27.02 17.18C26.34 16.5267 25.8133 15.76 25.44 14.88C25.0667 14 24.88 13.04 24.88 12C24.88 10.96 25.0667 10 25.44 9.12C25.8133 8.24 26.34 7.48 27.02 6.84C27.7133 6.18667 28.52 5.68667 29.44 5.34C30.36 4.98 31.3667 4.8 32.46 4.8C33.6467 4.8 34.7133 4.99333 35.66 5.38C36.62 5.76667 37.4267 6.33333 38.08 7.08L36.44 8.68C35.8933 8.13333 35.3 7.73333 34.66 7.48C34.0333 7.21333 33.34 7.08 32.58 7.08C31.8467 7.08 31.1667 7.2 30.54 7.44C29.9133 7.68 29.3733 8.02 28.92 8.46C28.4667 8.9 28.1133 9.42 27.86 10.02C27.62 10.62 27.5 11.28 27.5 12C27.5 12.7067 27.62 13.36 27.86 13.96C28.1133 14.56 28.4667 15.0867 28.92 15.54C29.3733 15.98 29.9067 16.32 30.52 16.56C31.1333 16.8 31.8133 16.92 32.56 16.92C33.2533 16.92 33.92 16.8133 34.56 16.6C35.2133 16.3733 35.8333 16 36.42 15.48L37.9 17.42C37.1667 18.0067 36.3133 18.4533 35.34 18.76C34.38 19.0533 33.4067 19.2 32.42 19.2ZM35.44 17.08V11.84H37.9V17.42L35.44 17.08ZM46.1092 19.14C44.9226 19.14 43.8826 18.9067 42.9892 18.44C42.1092 17.96 41.4226 17.3067 40.9292 16.48C40.4492 15.6533 40.2092 14.7133 40.2092 13.66C40.2092 12.5933 40.4426 11.6533 40.9092 10.84C41.3892 10.0133 42.0426 9.36667 42.8692 8.9C43.7092 8.43333 44.6626 8.2 45.7292 8.2C46.7692 8.2 47.6959 8.42667 48.5092 8.88C49.3226 9.33333 49.9626 9.97333 50.4292 10.8C50.8959 11.6267 51.1292 12.6 51.1292 13.72C51.1292 13.8267 51.1226 13.9467 51.1092 14.08C51.1092 14.2133 51.1026 14.34 51.0892 14.46H42.1892V12.8H49.7692L48.7892 13.32C48.8026 12.7067 48.6759 12.1667 48.4092 11.7C48.1426 11.2333 47.7759 10.8667 47.3092 10.6C46.8559 10.3333 46.3292 10.2 45.7292 10.2C45.1159 10.2 44.5759 10.3333 44.1092 10.6C43.6559 10.8667 43.2959 11.24 43.0292 11.72C42.7759 12.1867 42.6492 12.74 42.6492 13.38V13.78C42.6492 14.42 42.7959 14.9867 43.0892 15.48C43.3826 15.9733 43.7959 16.3533 44.3292 16.62C44.8626 16.8867 45.4759 17.02 46.1692 17.02C46.7692 17.02 47.3092 16.9267 47.7892 16.74C48.2692 16.5533 48.6959 16.26 49.0692 15.86L50.4092 17.4C49.9292 17.96 49.3226 18.3933 48.5892 18.7C47.8692 18.9933 47.0426 19.14 46.1092 19.14ZM57.5506 19.14C56.3773 19.14 55.4706 18.84 54.8306 18.24C54.1906 17.6267 53.8706 16.7267 53.8706 15.54V5.96H56.3706V15.48C56.3706 15.9867 56.4973 16.38 56.7506 16.66C57.0173 16.94 57.384 17.08 57.8506 17.08C58.4106 17.08 58.8773 16.9333 59.2506 16.64L59.9506 18.42C59.6573 18.66 59.2973 18.84 58.8706 18.96C58.444 19.08 58.004 19.14 57.5506 19.14ZM52.1106 10.4V8.4H59.2306V10.4H52.1106ZM62.2472 19V5H68.3672C69.8872 5 71.2205 5.29333 72.3672 5.88C73.5139 6.46667 74.4072 7.28 75.0472 8.32C75.6872 9.36 76.0072 10.5867 76.0072 12C76.0072 13.4 75.6872 14.6267 75.0472 15.68C74.4072 16.72 73.5139 17.5333 72.3672 18.12C71.2205 18.7067 69.8872 19 68.3672 19H62.2472ZM64.8472 16.8H68.2472C69.3005 16.8 70.2072 16.6 70.9672 16.2C71.7405 15.8 72.3339 15.24 72.7472 14.52C73.1739 13.8 73.3872 12.96 73.3872 12C73.3872 11.0267 73.1739 10.1867 72.7472 9.48C72.3339 8.76 71.7405 8.2 70.9672 7.8C70.2072 7.4 69.3005 7.2 68.2472 7.2H64.8472V16.8ZM78.5306 19V8.32H80.9106V11.26L80.6306 10.4C80.9506 9.68 81.4506 9.13333 82.1306 8.76C82.824 8.38667 83.684 8.2 84.7106 8.2V10.58C84.604 10.5533 84.504 10.54 84.4106 10.54C84.3173 10.5267 84.224 10.52 84.1306 10.52C83.184 10.52 82.4306 10.8 81.8706 11.36C81.3106 11.9067 81.0306 12.7267 81.0306 13.82V19H78.5306ZM86.8314 19V8.32H89.3314V19H86.8314ZM88.0914 6.56C87.6247 6.56 87.2381 6.41333 86.9314 6.12C86.6381 5.82667 86.4914 5.47333 86.4914 5.06C86.4914 4.63333 86.6381 4.28 86.9314 4C87.2381 3.70667 87.6247 3.56 88.0914 3.56C88.5581 3.56 88.9381 3.7 89.2314 3.98C89.5381 4.24667 89.6914 4.58667 89.6914 5C89.6914 5.44 89.5447 5.81333 89.2514 6.12C88.9581 6.41333 88.5714 6.56 88.0914 6.56ZM95.4527 19L90.8727 8.32H93.4727L97.4127 17.74H96.1327L100.213 8.32H102.613L98.0327 19H95.4527ZM110.423 19V16.84L110.283 16.38V12.6C110.283 11.8667 110.063 11.3 109.623 10.9C109.183 10.4867 108.516 10.28 107.623 10.28C107.023 10.28 106.43 10.3733 105.843 10.56C105.27 10.7467 104.783 11.0067 104.383 11.34L103.403 9.52C103.976 9.08 104.656 8.75333 105.443 8.54C106.243 8.31333 107.07 8.2 107.923 8.2C109.47 8.2 110.663 8.57333 111.503 9.32C112.356 10.0533 112.783 11.1933 112.783 12.74V19H110.423ZM107.063 19.14C106.263 19.14 105.563 19.0067 104.963 18.74C104.363 18.46 103.896 18.08 103.563 17.6C103.243 17.1067 103.083 16.5533 103.083 15.94C103.083 15.34 103.223 14.8 103.503 14.32C103.796 13.84 104.27 13.46 104.923 13.18C105.576 12.9 106.443 12.76 107.523 12.76H110.623V14.42H107.703C106.85 14.42 106.276 14.56 105.983 14.84C105.69 15.1067 105.543 15.44 105.543 15.84C105.543 16.2933 105.723 16.6533 106.083 16.92C106.443 17.1867 106.943 17.32 107.583 17.32C108.196 17.32 108.743 17.18 109.223 16.9C109.716 16.62 110.07 16.2067 110.283 15.66L110.703 17.16C110.463 17.7867 110.03 18.2733 109.403 18.62C108.79 18.9667 108.01 19.14 107.063 19.14Z" fill="#3C3C3C"/>
</svg>
