<svg width="150" height="32" viewBox="0 0 150 32" fill="none" xmlns="http://www.w3.org/2000/svg">
    <rect x="14" y="2" width="4" height="13.2" fill="black"/>
    <rect x="2.72339" y="22.1353" width="12.4" height="4" transform="rotate(-30.7211 2.72339 22.1353)" fill="black"/>
    <rect x="18.9278" y="15.6001" width="12.4" height="4" transform="rotate(31.7771 18.9278 15.6001)" fill="black"/>
    <circle cx="16" cy="16.8" r="3.6" fill="black"/>
    <circle cx="16" cy="16" r="13.5" stroke="black" stroke-width="5"/>
    <path d="M47.525 25.25C46.1583 25.25 44.9 25.0333 43.75 24.6C42.6167 24.15 41.625 23.525 40.775 22.725C39.925 21.9083 39.2667 20.95 38.8 19.85C38.3333 18.75 38.1 17.55 38.1 16.25C38.1 14.95 38.3333 13.75 38.8 12.65C39.2667 11.55 39.925 10.6 40.775 9.8C41.6417 8.98333 42.65 8.35833 43.8 7.925C44.95 7.475 46.2083 7.25 47.575 7.25C49.0583 7.25 50.3917 7.49167 51.575 7.975C52.775 8.45833 53.7833 9.16667 54.6 10.1L52.55 12.1C51.8667 11.4167 51.125 10.9167 50.325 10.6C49.5417 10.2667 48.675 10.1 47.725 10.1C46.8083 10.1 45.9583 10.25 45.175 10.55C44.3917 10.85 43.7167 11.275 43.15 11.825C42.5833 12.375 42.1417 13.025 41.825 13.775C41.525 14.525 41.375 15.35 41.375 16.25C41.375 17.1333 41.525 17.95 41.825 18.7C42.1417 19.45 42.5833 20.1083 43.15 20.675C43.7167 21.225 44.3833 21.65 45.15 21.95C45.9167 22.25 46.7667 22.4 47.7 22.4C48.5667 22.4 49.4 22.2667 50.2 22C51.0167 21.7167 51.7917 21.25 52.525 20.6L54.375 23.025C53.4583 23.7583 52.3917 24.3167 51.175 24.7C49.975 25.0667 48.7583 25.25 47.525 25.25ZM51.3 22.6V16.05H54.375V23.025L51.3 22.6ZM64.6365 25.175C63.1532 25.175 61.8532 24.8833 60.7365 24.3C59.6365 23.7 58.7782 22.8833 58.1615 21.85C57.5615 20.8167 57.2615 19.6417 57.2615 18.325C57.2615 16.9917 57.5532 15.8167 58.1365 14.8C58.7365 13.7667 59.5532 12.9583 60.5865 12.375C61.6365 11.7917 62.8282 11.5 64.1615 11.5C65.4615 11.5 66.6199 11.7833 67.6365 12.35C68.6532 12.9167 69.4532 13.7167 70.0365 14.75C70.6199 15.7833 70.9115 17 70.9115 18.4C70.9115 18.5333 70.9032 18.6833 70.8865 18.85C70.8865 19.0167 70.8782 19.175 70.8615 19.325H59.7365V17.25H69.2115L67.9865 17.9C68.0032 17.1333 67.8449 16.4583 67.5115 15.875C67.1782 15.2917 66.7199 14.8333 66.1365 14.5C65.5699 14.1667 64.9115 14 64.1615 14C63.3949 14 62.7199 14.1667 62.1365 14.5C61.5699 14.8333 61.1199 15.3 60.7865 15.9C60.4699 16.4833 60.3115 17.175 60.3115 17.975V18.475C60.3115 19.275 60.4949 19.9833 60.8615 20.6C61.2282 21.2167 61.7449 21.6917 62.4115 22.025C63.0782 22.3583 63.8449 22.525 64.7115 22.525C65.4615 22.525 66.1365 22.4083 66.7365 22.175C67.3365 21.9417 67.8699 21.575 68.3365 21.075L70.0115 23C69.4115 23.7 68.6532 24.2417 67.7365 24.625C66.8365 24.9917 65.8032 25.175 64.6365 25.175ZM78.9383 25.175C77.4716 25.175 76.3383 24.8 75.5383 24.05C74.7383 23.2833 74.3383 22.1583 74.3383 20.675V8.7H77.4633V20.6C77.4633 21.2333 77.6216 21.725 77.9383 22.075C78.2716 22.425 78.7299 22.6 79.3133 22.6C80.0133 22.6 80.5966 22.4167 81.0633 22.05L81.9383 24.275C81.5716 24.575 81.1216 24.8 80.5883 24.95C80.0549 25.1 79.5049 25.175 78.9383 25.175ZM72.1383 14.25V11.75H81.0383V14.25H72.1383ZM84.809 25V7.5H92.459C94.359 7.5 96.0257 7.86667 97.459 8.6C98.8923 9.33333 100.009 10.35 100.809 11.65C101.609 12.95 102.009 14.4833 102.009 16.25C102.009 18 101.609 19.5333 100.809 20.85C100.009 22.15 98.8923 23.1667 97.459 23.9C96.0257 24.6333 94.359 25 92.459 25H84.809ZM88.059 22.25H92.309C93.6257 22.25 94.759 22 95.709 21.5C96.6757 21 97.4173 20.3 97.934 19.4C98.4673 18.5 98.734 17.45 98.734 16.25C98.734 15.0333 98.4673 13.9833 97.934 13.1C97.4173 12.2 96.6757 11.5 95.709 11C94.759 10.5 93.6257 10.25 92.309 10.25H88.059V22.25ZM105.163 25V11.65H108.138V15.325L107.788 14.25C108.188 13.35 108.813 12.6667 109.663 12.2C110.53 11.7333 111.605 11.5 112.888 11.5V14.475C112.755 14.4417 112.63 14.425 112.513 14.425C112.397 14.4083 112.28 14.4 112.163 14.4C110.98 14.4 110.038 14.75 109.338 15.45C108.638 16.1333 108.288 17.1583 108.288 18.525V25H105.163ZM115.539 25V11.65H118.664V25H115.539ZM117.114 9.45C116.531 9.45 116.048 9.26667 115.664 8.9C115.298 8.53333 115.114 8.09167 115.114 7.575C115.114 7.04167 115.298 6.6 115.664 6.25C116.048 5.88333 116.531 5.7 117.114 5.7C117.698 5.7 118.173 5.875 118.539 6.225C118.923 6.55833 119.114 6.98333 119.114 7.5C119.114 8.05 118.931 8.51667 118.564 8.9C118.198 9.26667 117.714 9.45 117.114 9.45ZM126.316 25L120.591 11.65H123.841L128.766 23.425H127.166L132.266 11.65H135.266L129.541 25H126.316ZM145.029 25V22.3L144.854 21.725V17C144.854 16.0833 144.579 15.375 144.029 14.875C143.479 14.3583 142.646 14.1 141.529 14.1C140.779 14.1 140.037 14.2167 139.304 14.45C138.587 14.6833 137.979 15.0083 137.479 15.425L136.254 13.15C136.971 12.6 137.821 12.1917 138.804 11.925C139.804 11.6417 140.837 11.5 141.904 11.5C143.837 11.5 145.329 11.9667 146.379 12.9C147.446 13.8167 147.979 15.2417 147.979 17.175V25H145.029ZM140.829 25.175C139.829 25.175 138.954 25.0083 138.204 24.675C137.454 24.325 136.871 23.85 136.454 23.25C136.054 22.6333 135.854 21.9417 135.854 21.175C135.854 20.425 136.029 19.75 136.379 19.15C136.746 18.55 137.337 18.075 138.154 17.725C138.971 17.375 140.054 17.2 141.404 17.2H145.279V19.275H141.629C140.562 19.275 139.846 19.45 139.479 19.8C139.112 20.1333 138.929 20.55 138.929 21.05C138.929 21.6167 139.154 22.0667 139.604 22.4C140.054 22.7333 140.679 22.9 141.479 22.9C142.246 22.9 142.929 22.725 143.529 22.375C144.146 22.025 144.587 21.5083 144.854 20.825L145.379 22.7C145.079 23.4833 144.537 24.0917 143.754 24.525C142.987 24.9583 142.012 25.175 140.829 25.175Z" fill="black"/>
</svg>
