<svg width="12" height="12" viewBox="0 0 12 12" fill="none" xmlns="http://www.w3.org/2000/svg">
    <path fill-rule="evenodd" clip-rule="evenodd" d="M11.7525 5.29493L10.9425 4.28993C10.815 4.12493 10.7325 3.92993 10.71 3.71243L10.5675 2.43743C10.5386 2.18284 10.4242 1.94558 10.243 1.7644C10.0618 1.58322 9.82458 1.46884 9.56999 1.43993L8.29499 1.29743C8.06999 1.27493 7.87499 1.17743 7.70999 1.04993L6.70499 0.239932C6.29249 -0.0900684 5.70749 -0.0900684 5.29499 0.239932L4.28999 1.04993C4.12499 1.17743 3.92999 1.25993 3.71249 1.28243L2.43749 1.42493C1.91249 1.48493 1.49999 1.89743 1.43999 2.42243L1.29749 3.69743C1.27499 3.92243 1.17749 4.11743 1.04999 4.28243L0.239993 5.28743C-0.0900073 5.69993 -0.0900073 6.28493 0.239993 6.69743L1.04999 7.70243C1.17749 7.86743 1.25999 8.06243 1.28249 8.27993L1.42499 9.55493C1.48499 10.0799 1.89749 10.4924 2.42249 10.5524L3.69749 10.6949C3.92249 10.7174 4.11749 10.8149 4.28249 10.9424L5.28749 11.7524C5.69999 12.0824 6.28499 12.0824 6.69749 11.7524L7.70249 10.9424C7.86749 10.8149 8.06249 10.7324 8.27999 10.7099L9.55499 10.5674C10.08 10.5074 10.4925 10.0949 10.5525 9.56993L10.695 8.29493C10.7175 8.06993 10.815 7.87493 10.9425 7.70993L11.7525 6.70493C12.0825 6.29243 12.0825 5.70743 11.7525 5.29493ZM4.87499 8.99993L2.24999 6.37493L3.37499 5.24993L4.87499 6.74993L8.62499 2.99993L9.74999 4.16243L4.87499 8.99993Z" fill="#249524"/>
</svg>
